<svg xmlns="http://www.w3.org/2000/svg" width="821.333" height="560" preserveAspectRatio="xMidYMid meet" version="1.0" viewBox="0 0 616 420"><g fill="#000" stroke="none"><path d="M4710 4185 c-83 -20 -92 -30 -45 -49 21 -9 41 -16 46 -16 5 0 9 -4 9 -9 0 -5 -22 -11 -50 -13 -68 -7 -171 -60 -229 -118 -101 -101 -127 -213 -75 -319 36 -71 86 -104 169 -109 56 -4 72 0 161 39 78 34 114 44 171 47 175 10 309 -89 382 -282 29 -79 29 -230 0 -330 -36 -123 -90 -216 -181 -312 l-38 -40 -89 42 c-170 83 -343 110 -556 88 -201 -22 -344 -70 -648 -221 -114 -57 -221 -106 -237 -110 -23 -4 -48 3 -103 31 -57 28 -93 38 -172 48 l-100 13 -3 57 c-3 56 -5 59 -57 105 -30 26 -55 50 -55 54 0 4 11 10 25 13 14 4 25 11 25 16 0 15 -113 151 -179 215 -51 50 -73 82 -125 190 -35 72 -91 166 -123 210 -114 154 -273 275 -341 261 -61 -14 -123 -92 -207 -260 -56 -111 -64 -121 -91 -123 -127 -11 -257 -48 -374 -109 -35 -19 -75 -34 -88 -34 -12 0 -85 20 -160 45 -182 60 -267 77 -377 73 l-90 -3 -3 -39 c-7 -81 72 -256 210 -466 l69 -105 -8 -80 c-15 -167 -4 -253 52 -395 14 -36 33 -110 41 -165 8 -54 19 -104 25 -111 7 -8 -9 -13 -59 -18 -44 -4 -90 -17 -128 -36 -102 -49 -101 -50 56 -44 142 5 200 -1 207 -23 2 -6 -15 -18 -39 -28 -59 -23 -131 -78 -167 -127 -17 -23 -31 -45 -31 -50 0 -4 51 19 113 51 62 32 131 64 153 71 40 12 42 11 89 -25 27 -20 76 -51 109 -68 l61 -32 -40 -3 c-88 -6 -218 -33 -282 -59 -105 -42 -153 -72 -219 -137 -119 -119 -125 -256 -18 -375 65 -72 102 -83 265 -79 118 3 139 6 179 27 40 21 54 23 120 17 41 -3 126 -19 187 -36 62 -17 139 -33 170 -36 l58 -6 98 66 c54 36 105 66 112 66 29 0 24 -20 -12 -46 -21 -16 -69 -56 -108 -90 -97 -85 -154 -123 -270 -182 -127 -65 -167 -99 -202 -170 -23 -47 -28 -70 -27 -127 0 -89 24 -141 98 -217 l56 -58 -364 0 -364 0 54 56 c190 194 188 513 -3 702 -232 230 -594 192 -771 -81 -47 -71 -82 -188 -82 -271 0 -121 55 -251 145 -343 l61 -63 -222 0 c-197 0 -224 -2 -242 -17 -32 -28 -33 -72 -2 -103 20 -20 33 -20 3050 -20 l3031 0 26 26 c20 20 24 31 19 57 -11 55 -20 57 -248 57 l-207 0 39 56 c43 62 74 145 90 244 18 109 23 337 11 460 -20 211 -43 260 -172 366 -84 70 -129 140 -148 232 -6 29 -11 124 -11 210 0 86 -5 187 -10 224 -13 91 -64 246 -111 340 -22 43 -39 83 -39 90 1 7 37 38 81 67 130 89 263 242 325 374 13 29 24 62 24 75 l0 22 -40 -20 c-22 -11 -40 -17 -40 -12 0 5 13 33 29 63 16 30 42 90 57 134 24 71 28 95 28 205 0 91 -5 141 -17 183 -22 73 -38 71 -68 -8 -11 -28 -13 -24 -25 60 -30 198 -100 345 -225 467 -59 57 -145 115 -156 105 -3 -4 2 -24 11 -47 9 -22 16 -43 16 -45 0 -3 -30 20 -67 50 -75 62 -179 118 -263 140 -82 23 -233 27 -310 10z m253 -100 c37 -8 94 -28 126 -45 64 -34 129 -85 121 -94 -3 -3 -30 1 -60 9 -30 8 -78 15 -107 15 -53 0 -78 -14 -44 -25 24 -7 84 -73 106 -116 16 -31 16 -32 -1 -24 -76 31 -198 47 -217 29 -4 -4 13 -19 38 -35 24 -15 48 -36 53 -46 9 -17 4 -18 -91 -18 -97 0 -106 -2 -187 -38 -47 -21 -98 -42 -115 -46 -75 -19 -145 37 -145 115 0 122 123 225 313 262 45 8 84 17 86 18 2 2 -2 11 -9 20 -12 13 -11 17 1 25 20 12 53 11 132 -6z m-2562 -584 c58 -61 113 -174 145 -299 25 -98 32 -222 13 -222 -6 0 -25 11 -42 24 -18 14 -54 34 -81 46 l-49 20 7 54 c3 29 3 56 -1 59 -3 4 -28 -13 -54 -38 -47 -44 -50 -45 -113 -45 -36 0 -67 3 -69 8 -9 17 25 167 59 259 73 195 104 218 185 134z m-787 -713 c14 -58 71 -185 92 -207 2 -3 15 6 29 19 14 13 27 21 30 18 3 -3 10 -50 16 -104 21 -219 45 -302 105 -373 47 -54 104 -82 179 -89 84 -6 151 15 256 82 47 30 115 66 149 81 60 25 213 64 254 65 18 0 19 -1 1 -20 -10 -11 -15 -23 -11 -27 12 -12 132 24 222 66 57 27 84 35 84 26 0 -20 -85 -129 -142 -179 l-50 -46 68 0 68 0 -30 -31 c-31 -33 -149 -115 -199 -139 l-30 -14 39 -5 c22 -4 41 -11 43 -16 9 -29 -302 -177 -527 -252 -110 -36 -153 -46 -232 -50 -181 -11 -359 50 -305 104 11 11 24 11 78 -3 80 -21 142 -13 200 25 48 33 68 63 69 104 0 36 -9 34 -55 -13 -24 -24 -55 -45 -79 -51 -73 -20 -182 7 -205 49 -8 15 -4 26 19 54 79 96 29 129 -131 87 -65 -17 -59 -61 17 -117 65 -48 58 -102 -13 -102 -60 0 -113 76 -113 161 0 22 14 75 31 117 42 106 38 138 -46 299 -50 97 -68 144 -76 196 -6 38 -8 72 -4 75 4 4 19 -9 35 -28 l28 -34 7 59 c12 111 75 285 103 285 4 0 16 -33 26 -72z m543 -439 c53 -50 64 -97 37 -155 -15 -30 -68 -74 -90 -74 -5 0 -9 30 -9 66 0 59 -3 68 -28 89 -15 13 -43 27 -62 31 -19 3 -35 9 -35 13 0 10 41 47 60 54 31 13 101 -1 127 -24z m-706 -136 c51 -43 77 -131 47 -161 -20 -20 -25 -14 -32 33 -9 58 -48 105 -87 105 -16 0 -29 4 -29 9 0 48 52 55 101 14z m1079 -692 c22 -44 44 -83 50 -86 34 -21 -102 -304 -154 -321 -24 -8 -74 41 -134 131 l-46 69 -14 -48 -14 -49 -18 29 c-22 35 -58 139 -69 201 -10 52 -12 51 109 78 41 9 107 29 145 45 39 16 78 29 87 29 12 1 30 -24 58 -78z m1820 -211 c76 -287 287 -486 595 -561 50 -12 106 -25 126 -30 70 -17 129 -90 129 -159 0 -32 -10 -44 -101 -120 -75 -62 -112 -188 -80 -272 l11 -28 -302 0 -302 0 80 82 c90 94 169 198 208 275 55 110 87 231 63 237 -100 29 -171 72 -269 164 l-67 64 -88 -40 c-113 -50 -226 -87 -333 -107 -111 -22 -392 -31 -490 -16 -95 14 -170 33 -170 42 0 4 20 31 44 60 24 30 57 80 73 112 l29 58 194 3 c246 4 352 25 517 102 l72 34 -2 113 c-1 71 3 132 12 167 l15 55 12 -95 c7 -53 17 -116 24 -140z m-2732 103 c67 -68 87 -113 86 -198 0 -73 -15 -115 -39 -115 -9 0 -16 16 -21 45 -4 28 -11 45 -20 45 -8 0 -14 -4 -14 -9 0 -5 -21 -33 -47 -61 -72 -81 -156 -108 -190 -63 -7 10 -13 45 -13 81 0 72 -10 77 -47 22 -15 -21 -23 -48 -23 -75 0 -35 -4 -44 -21 -48 -29 -8 -66 8 -80 34 -11 22 -7 116 7 153 6 17 5 17 -24 2 -16 -8 -32 -21 -35 -28 -2 -7 -7 -11 -10 -8 -13 12 26 87 69 131 80 81 208 137 317 138 56 1 59 -1 105 -46z m4106 -475 c3 -18 9 -99 12 -180 8 -162 -5 -289 -38 -397 -23 -76 -41 -105 -87 -146 -55 -49 -98 -64 -178 -65 -61 0 -76 3 -94 21 -18 18 -20 30 -16 73 2 28 8 59 12 69 7 17 5 17 -26 5 -42 -17 -69 -67 -69 -125 l0 -43 -40 0 c-58 0 -90 34 -90 95 0 72 35 122 124 175 22 13 44 37 52 56 20 47 17 135 -5 193 l-20 49 70 17 c130 32 289 126 347 205 29 38 38 38 46 -2z m-4954 -12 c0 -19 12 -30 57 -54 77 -40 82 -49 48 -100 l-28 -42 -82 79 c-45 43 -92 82 -104 86 -33 10 -25 23 22 35 23 6 47 13 52 15 25 9 35 3 35 -19z m151 -1 c25 -13 28 -19 19 -35 -6 -11 -12 -20 -13 -20 -2 0 -18 16 -37 35 -26 27 -30 35 -16 35 9 0 30 -7 47 -15z m-243 -155 c56 -59 102 -112 101 -116 0 -5 -13 -19 -30 -32 l-29 -23 -61 53 c-39 33 -64 48 -66 41 -6 -16 -57 -17 -83 -3 -28 15 -43 79 -26 105 19 28 77 85 85 84 3 -1 52 -50 109 -109z m1756 13 c73 -71 156 -210 156 -260 0 -23 -10 -35 -58 -65 -31 -21 -106 -78 -166 -128 -122 -100 -168 -123 -242 -118 l-49 3 0 78 c0 56 -3 77 -13 77 -22 0 -62 -51 -73 -94 -6 -23 -13 -47 -15 -53 -7 -25 -64 -15 -95 16 -36 37 -37 74 -4 155 13 33 22 62 20 64 -11 11 -69 -24 -93 -56 l-26 -34 -9 25 c-12 37 8 101 46 143 20 24 64 52 123 79 105 49 176 95 287 189 l79 65 46 -24 c26 -13 64 -41 86 -62z m-1349 27 c14 -43 -108 -235 -207 -326 -96 -88 -181 -140 -315 -193 l-53 -21 -25 28 c-14 15 -25 30 -25 33 0 3 32 19 72 35 193 78 401 272 479 450 20 43 20 44 44 28 13 -9 27 -24 30 -34z m2252 -85 c85 -22 272 -45 366 -45 45 0 136 7 202 15 l120 15 43 -46 c48 -53 53 -83 23 -143 -25 -48 -37 -57 -86 -65 -70 -12 -142 -54 -175 -100 -39 -58 -56 -125 -41 -167 6 -18 11 -36 11 -40 0 -5 -339 -9 -752 -9 -712 0 -751 1 -728 17 14 9 82 63 151 119 148 119 171 134 349 214 237 107 314 148 375 199 33 28 65 51 72 51 7 0 38 -7 70 -15z m-2162 -86 c8 -30 15 -75 15 -101 0 -56 -14 -61 -68 -28 -40 25 -42 25 -42 0 0 -29 26 -76 52 -94 l22 -16 -22 -45 c-12 -25 -26 -45 -31 -45 -19 0 -80 81 -91 119 -10 39 -9 42 33 95 43 52 97 151 97 177 0 28 22 -10 35 -62z m-721 -51 c-9 -17 -19 -58 -21 -90 -7 -66 -19 -75 -30 -20 -11 57 -9 122 6 175 l14 48 23 -41 c23 -39 23 -43 8 -72z m181 3 l46 -29 -43 -30 c-42 -29 -142 -82 -153 -82 -10 0 6 62 26 102 15 29 54 63 76 68 1 0 23 -13 48 -29z m304 -227 c2 -10 12 -31 22 -45 l18 -26 -35 -16 c-40 -20 -102 -22 -138 -6 -25 12 -24 12 34 54 32 24 61 48 65 55 10 16 29 7 34 -16z m91 -129 c-28 -34 -184 -96 -166 -66 4 6 17 11 28 11 12 0 18 3 15 6 -4 4 12 16 34 27 22 11 48 30 57 43 14 19 19 21 31 9 12 -12 12 -17 1 -30z m-275 -11 c33 -25 34 -27 18 -50 -13 -21 -21 -23 -52 -18 -20 4 -56 16 -81 26 l-45 20 60 23 c33 13 61 24 63 24 2 1 19 -11 37 -25z" transform="translate(0.000000,420.000000) scale(0.100000,-0.100000)"/></g></svg>